<?xml version="1.0" standalone="no"?>
<!DOCTYPE svg PUBLIC "-//W3C//DTD SVG 20010904//EN"
 "http://www.w3.org/TR/2001/REC-SVG-20010904/DTD/svg10.dtd">
<svg version="1.0" xmlns="http://www.w3.org/2000/svg"
 width="4675.000000pt" height="4675.000000pt" viewBox="0 0 4675.000000 4675.000000"
 preserveAspectRatio="xMidYMid meet">
<metadata>
Created by potrace 1.14, written by Peter Selinger 2001-2017
</metadata>
<g transform="translate(0.000000,4675.000000) scale(0.100000,-0.100000)"
fill="#000000" stroke="none">
<path d="M22985 36709 c-3205 -144 -6190 -1368 -8582 -3522 -327 -294 -809
-784 -1117 -1134 -628 -717 -1205 -1538 -1687 -2400 -142 -255 -421 -818 -543
-1095 -595 -1354 -961 -2764 -1101 -4243 -49 -521 -70 -1369 -46 -1882 38
-820 137 -1579 306 -2349 1143 -5212 5270 -9318 10485 -10433 241 -51 581
-115 583 -109 1 2 21 62 45 133 163 490 516 949 952 1240 118 78 271 163 373
206 l77 33 0 388 0 388 -615 0 -615 0 0 450 0 450 615 0 615 0 0 390 0 390
915 0 915 0 0 -1227 0 -1228 79 -33 c96 -40 263 -133 374 -206 251 -168 504
-421 674 -676 115 -172 225 -398 288 -590 15 -47 29 -86 30 -88 4 -4 333 60
555 109 2240 498 4316 1553 6053 3076 342 300 791 741 1093 1073 1931 2129
3131 4753 3469 7585 68 570 90 976 90 1635 -1 627 -17 958 -75 1490 -259 2372
-1128 4618 -2537 6555 -1243 1709 -2866 3108 -4748 4092 -1775 929 -3720 1446
-5765 1533 -268 11 -889 11 -1155 -1z m8295 -4049 c23 -23 24 -71 11 -414 -8
-215 -9 -219 -90 -214 -33 2 -49 9 -63 28 -17 24 -18 38 -7 305 9 229 14 283
26 298 23 25 97 23 123 -3z m-1193 -215 c12 -8 37 -56 58 -112 44 -116 156
-352 208 -441 43 -73 47 -114 15 -136 -36 -25 -95 -21 -123 10 -50 54 -295
584 -295 639 0 47 90 73 137 40z m2485 -67 c34 -17 33 -55 -3 -121 -79 -150
-249 -416 -302 -474 -26 -29 -75 -30 -111 -2 -44 35 -36 64 63 211 49 73 121
189 160 258 85 149 114 169 193 128z m-1092 -981 c14 -2 32 -6 40 -9 8 -3 60
-20 115 -37 55 -17 131 -46 169 -66 38 -19 73 -32 79 -28 6 3 7 2 4 -4 -8 -12
67 -55 78 -45 5 4 5 2 2 -4 -6 -10 33 -45 48 -44 3 0 19 -16 37 -35 17 -20 33
-33 36 -30 5 4 33 -24 104 -105 12 -13 49 -66 83 -117 34 -51 66 -89 70 -85 5
4 5 2 2 -5 -4 -6 -4 -18 -1 -27 5 -14 9 -14 23 -4 14 11 14 11 3 -3 -10 -14
-8 -26 15 -70 15 -30 28 -57 29 -61 1 -5 3 -10 4 -13 1 -3 3 -8 4 -12 11 -43
28 -101 33 -113 3 -8 7 -24 8 -35 1 -11 6 -47 9 -80 4 -33 10 -67 13 -75 9
-26 5 -169 -9 -269 -7 -53 -12 -106 -12 -118 1 -13 -3 -23 -9 -23 -6 0 -7 -3
-4 -7 4 -3 2 -12 -4 -20 -9 -10 -7 -19 7 -36 15 -17 16 -19 2 -8 -16 12 -19
10 -28 -14 -6 -15 -12 -35 -13 -44 -2 -9 -9 -26 -15 -39 -7 -12 -10 -28 -6
-34 4 -7 3 -8 -4 -4 -7 4 -14 -4 -18 -21 -4 -15 -12 -35 -19 -43 -20 -23 -45
-77 -40 -84 3 -3 2 -4 -1 -1 -6 4 -54 -59 -54 -71 0 -3 -11 -17 -25 -32 -14
-15 -23 -32 -21 -39 3 -8 -1 -10 -12 -6 -9 3 -14 3 -10 -2 4 -4 -6 -18 -23
-32 -16 -14 -26 -30 -22 -36 3 -7 2 -9 -2 -4 -11 10 -76 -53 -68 -66 3 -6 1
-7 -6 -3 -6 4 -17 1 -24 -6 -8 -7 -39 -31 -70 -52 -40 -28 -54 -43 -49 -55 5
-13 3 -14 -9 -5 -11 9 -17 9 -26 -1 -6 -7 -9 -16 -5 -19 3 -4 0 -5 -8 -1 -8 3
-49 -11 -90 -31 -41 -21 -81 -38 -88 -40 -8 -1 -21 -6 -30 -10 -22 -9 -29 -11
-47 -13 -8 0 -15 -5 -15 -11 0 -13 27 -13 33 0 3 6 4 5 3 -2 -2 -9 -23 -13
-68 -14 -37 0 -72 -5 -80 -11 -9 -8 -77 -11 -223 -9 -228 4 -283 13 -454 75
-399 146 -696 504 -776 936 -26 136 -17 386 18 517 91 346 323 635 637 793
103 52 249 99 350 114 41 6 86 13 100 15 27 5 290 -1 330 -7z m220 -37 c-8 -5
-19 -10 -25 -10 -5 0 -3 5 5 10 8 5 20 10 25 10 6 0 3 -5 -5 -10z m398 -196
c8 -2 17 -5 20 -8 3 -4 -4 -5 -16 -3 -12 2 -28 9 -35 17 -10 10 -9 11 3 4 8
-5 21 -9 28 -10z m17 -34 c3 -5 1 -10 -4 -10 -6 0 -11 5 -11 10 0 6 2 10 4 10
3 0 8 -4 11 -10z m42 -65 c0 -8 -4 -12 -9 -9 -5 3 -6 10 -3 15 9 13 12 11 12
-6z m42 -22 c-12 -15 -12 -16 4 -10 9 3 17 2 17 -3 0 -6 -7 -10 -15 -10 -8 0
-15 -6 -15 -12 0 -7 -5 -5 -11 5 -9 14 -7 22 8 32 24 19 28 18 12 -2z m138
-69 c-3 -3 -2 -17 3 -30 5 -13 7 -24 4 -24 -2 0 -8 10 -13 23 -8 22 -6 37 6
37 4 0 4 -3 0 -6z m54 -81 c13 -16 12 -17 -3 -4 -17 13 -22 21 -14 21 2 0 10
-8 17 -17z m-8606 -43 c769 -51 1371 -194 1955 -464 497 -230 903 -517 1310
-925 207 -207 301 -315 460 -526 779 -1036 1270 -2499 1425 -4249 9 -98 15
-180 13 -181 -2 -2 -35 5 -73 16 -243 68 -391 79 -1045 79 l-496 0 -18 223
c-163 2052 -733 3447 -1701 4171 -593 444 -1303 643 -2215 623 -676 -16 -1179
-125 -1642 -358 -820 -411 -1328 -1183 -1483 -2254 -35 -237 -47 -450 -43
-730 l3 -250 -28 -57 c-35 -70 -101 -131 -174 -158 -48 -18 -114 -23 -546 -46
-271 -14 -508 -22 -527 -19 -105 20 -202 101 -240 201 -45 120 -14 611 66
1059 154 862 464 1612 912 2210 740 986 1807 1531 3197 1634 160 12 715 12
890 1z m8595 -50 c0 -5 -2 -10 -4 -10 -3 0 -8 5 -11 10 -3 6 -1 10 4 10 6 0
11 -4 11 -10z m60 5 c0 -2 -6 -8 -13 -14 -10 -8 -14 -7 -14 2 0 8 6 14 14 14
7 0 13 -1 13 -2z m14 -214 c-16 -14 -17 -14 -6 0 7 9 10 25 6 35 -5 18 -5 18
6 0 10 -15 9 -21 -6 -35z m141 -191 c-4 -6 -1 -19 6 -28 12 -16 12 -16 -5 0
-16 14 -15 38 0 38 3 0 2 -5 -1 -10z m-55 -60 c0 -5 -7 -7 -15 -4 -8 4 -15 8
-15 10 0 2 7 4 15 4 8 0 15 -4 15 -10z m70 -21 c-6 -10 -13 -19 -16 -19 -2 0
0 8 5 19 6 10 7 22 3 26 -4 5 -1 5 6 1 9 -5 9 -12 2 -27z m11 -216 c12 -16 12
-17 -2 -6 -9 7 -20 9 -24 5 -5 -4 -5 -1 -1 6 9 16 11 15 27 -5z m-17 -145 c-4
-5 -9 -7 -12 -4 -3 3 -12 0 -21 -7 -14 -10 -14 -10 -4 4 13 16 46 23 37 7z
m-15631 -386 c9 -10 46 -97 81 -193 120 -329 191 -479 316 -667 228 -343 549
-556 890 -591 74 -8 87 -12 108 -36 23 -28 24 -66 2 -89 -5 -5 -65 -16 -132
-23 -68 -7 -155 -22 -194 -33 -282 -77 -551 -299 -751 -621 -78 -125 -190
-362 -310 -655 -5 -15 -48 -34 -74 -34 -11 0 -31 11 -44 25 -23 22 -25 32 -25
108 0 353 -198 753 -502 1017 -212 184 -448 304 -716 365 -57 13 -110 29 -118
36 -22 18 -17 72 9 96 19 18 39 21 152 26 161 7 290 38 423 103 80 39 108 59
186 137 139 140 286 369 432 672 39 83 88 193 109 245 21 52 44 103 53 113 20
23 84 23 105 -1z m15463 -4 c3 -4 -1 -5 -10 -4 -8 1 -18 5 -22 8 -3 4 1 5 10
4 8 -1 18 -5 22 -8z m-6 -32 c0 -3 -4 -8 -10 -11 -5 -3 -10 -1 -10 4 0 6 5 11
10 11 6 0 10 -2 10 -4z m-173 -131 c0 -8 -4 -12 -9 -9 -5 3 -6 10 -3 15 9 13
12 11 12 -6z m37 7 c3 -5 -1 -9 -9 -9 -8 0 -12 4 -9 9 3 4 7 8 9 8 2 0 6 -4 9
-8z m-74 -56 c0 -2 -8 -10 -17 -17 -16 -13 -17 -12 -4 4 13 16 21 21 21 13z
m-44 -81 c-1 -8 -5 -17 -8 -21 -5 -4 -4 16 1 34 3 9 9 -1 7 -13z m-101 -94 c3
-5 2 -12 -3 -15 -5 -3 -9 1 -9 9 0 17 3 19 12 6z m-98 -46 c0 -8 -4 -12 -9 -9
-5 3 -6 10 -3 15 9 13 12 11 12 -6z m-143 -95 c-10 -4 -25 -5 -32 -2 -22 8 6
21 31 14 20 -5 20 -6 1 -12z m-84 -14 c0 -2 -8 -10 -17 -17 -16 -13 -17 -12
-4 4 13 16 21 21 21 13z m8 -2268 c6 -7 31 -71 57 -143 61 -168 138 -331 210
-442 101 -156 262 -293 420 -360 52 -22 186 -53 228 -53 32 0 49 -22 45 -57
-3 -27 -4 -28 -98 -39 -103 -12 -176 -32 -255 -72 -231 -115 -387 -314 -551
-702 -55 -130 -76 -156 -118 -141 -18 7 -22 20 -29 97 -17 198 -81 368 -194
519 -146 196 -352 337 -585 400 -51 14 -104 29 -118 33 -17 5 -26 16 -28 33
-5 45 20 59 104 59 96 0 200 23 293 66 133 61 252 207 397 489 40 77 87 176
104 220 38 97 45 105 80 105 15 0 32 -6 38 -12z m-17358 -1239 c135 -12 174
-16 178 -19 1 -2 5 -3 10 -5 4 -1 20 -7 35 -13 15 -7 40 -15 55 -19 15 -3 55
-19 89 -34 42 -19 65 -24 69 -17 5 7 2 8 -7 3 -8 -5 -12 -6 -9 -2 9 10 25 7
25 -5 0 -7 14 -19 30 -27 17 -8 32 -17 35 -21 14 -18 67 -47 79 -42 8 3 11 0
7 -6 -3 -6 4 -18 16 -26 24 -17 42 -21 34 -8 -3 5 1 9 9 9 12 0 12 -3 2 -15
-10 -12 -8 -17 7 -26 15 -10 41 -35 164 -163 12 -13 22 -28 22 -32 0 -5 8 -15
17 -22 11 -10 14 -10 9 -1 -12 21 -1 13 25 -15 22 -25 22 -26 2 -9 -28 23 -30
8 -3 -21 29 -32 136 -246 132 -265 -1 -5 6 -8 16 -8 12 0 13 -3 5 -8 -10 -6
-10 -16 -1 -43 20 -61 21 -64 23 -79 9 -66 19 -100 28 -100 8 0 8 -3 2 -8 -6
-4 -10 -78 -11 -182 -1 -167 -5 -227 -17 -260 -14 -37 -26 -94 -21 -102 3 -4
0 -8 -5 -8 -6 0 -11 -8 -11 -17 0 -10 -11 -42 -25 -71 -14 -30 -22 -59 -18
-65 3 -5 2 -7 -4 -4 -12 8 -56 -81 -47 -96 4 -7 4 -9 -1 -5 -11 10 -38 -29
-30 -42 4 -6 1 -9 -7 -8 -7 2 -12 -5 -11 -15 0 -10 -1 -16 -4 -13 -3 3 -19 -9
-34 -27 -29 -33 -38 -54 -17 -41 7 4 8 3 4 -5 -4 -6 -11 -9 -15 -7 -10 7 -77
-65 -73 -78 2 -6 0 -8 -4 -4 -4 5 -30 -13 -58 -40 -80 -74 -162 -137 -180
-137 -6 0 -10 -9 -9 -19 1 -13 -2 -15 -9 -8 -13 13 -72 -13 -63 -27 3 -5 -3
-7 -13 -4 -11 2 -26 -3 -35 -12 -9 -8 -20 -16 -24 -15 -4 0 -21 -5 -38 -11
-16 -7 -37 -13 -46 -15 -43 -9 -70 -25 -63 -36 6 -10 5 -10 -7 -1 -12 10 -30
8 -85 -5 -96 -24 -291 -28 -424 -8 -399 60 -733 296 -913 644 -113 220 -158
443 -137 677 55 592 514 1057 1100 1114 120 12 112 12 250 0z m601 -156 c13
-16 12 -17 -3 -4 -10 7 -18 15 -18 17 0 8 8 3 21 -13z m109 -57 c0 -3 -4 -8
-10 -11 -5 -3 -10 -1 -10 4 0 6 5 11 10 11 6 0 10 -2 10 -4z m6 -41 c-1 -8 -5
-17 -8 -21 -5 -4 -4 16 1 34 3 9 9 -1 7 -13z m74 -49 c0 -2 -8 -10 -17 -17
-16 -13 -17 -12 -4 4 13 16 21 21 21 13z m48 -110 c-7 -8 -15 -12 -17 -11 -5
6 10 25 20 25 5 0 4 -6 -3 -14z m90 -31 c-3 -3 -9 2 -12 12 -6 14 -5 15 5 6 7
-7 10 -15 7 -18z m76 -73 c3 -5 -1 -9 -9 -9 -8 0 -12 4 -9 9 3 4 7 8 9 8 2 0
6 -4 9 -8z m231 -570 c2 -28 1 -27 -18 2 -15 22 -15 24 0 22 9 -2 17 -12 18
-24z m-5 -292 c-8 -5 -19 -10 -25 -10 -5 0 -3 5 5 10 8 5 20 10 25 10 6 0 3
-5 -5 -10z m-155 -440 c3 -6 -1 -7 -9 -4 -18 7 -21 14 -7 14 6 0 13 -4 16 -10z
m-135 -124 c0 -3 -4 -8 -10 -11 -5 -3 -10 -1 -10 4 0 6 5 11 10 11 6 0 10 -2
10 -4z m-30 -20 c0 -2 -8 -10 -17 -17 -16 -13 -17 -12 -4 4 13 16 21 21 21 13z
m-146 -195 c-2 -3 -12 3 -22 13 -16 17 -16 18 5 5 12 -7 20 -15 17 -18z m-94
-85 c0 -2 -8 -10 -17 -17 -16 -13 -17 -12 -4 4 13 16 21 21 21 13z m-76 -24
c3 -5 -1 -9 -9 -9 -8 0 -12 4 -9 9 3 4 7 8 9 8 2 0 6 -4 9 -8z m-90 -70 c3 -5
-1 -9 -9 -9 -8 0 -12 4 -9 9 3 4 7 8 9 8 2 0 6 -4 9 -8z m-209 -72 c-3 -5 -12
-10 -18 -10 -7 0 -6 4 3 10 19 12 23 12 15 0z m9468 -1321 c18 -5 27 -4 28 4
0 8 2 8 6 -1 4 -10 8 -10 21 0 9 7 13 8 9 2 -10 -17 52 -27 71 -12 13 10 14
10 8 1 -4 -7 -5 -13 -1 -13 3 0 48 -9 100 -21 53 -11 105 -17 118 -14 15 4 18
3 9 -3 -9 -6 6 -13 50 -23 35 -8 69 -13 76 -13 6 1 12 -2 12 -6 0 -13 43 -20
56 -9 8 7 15 6 20 -2 4 -8 3 -9 -4 -5 -7 4 -12 2 -12 -5 0 -6 8 -9 20 -6 11 3
20 2 20 -2 0 -4 19 -14 43 -21 23 -7 60 -20 82 -30 22 -10 51 -21 65 -25 35
-11 300 -137 332 -158 14 -10 35 -19 46 -20 12 0 19 -4 16 -8 -3 -6 79 -59 92
-59 1 0 4 8 6 18 3 14 5 13 10 -6 4 -15 2 -20 -5 -16 -7 3 -1 -4 13 -15 14
-11 31 -21 38 -21 6 0 12 -5 12 -11 0 -6 7 -9 15 -5 9 3 15 0 15 -9 0 -8 5
-15 11 -15 7 0 17 -7 23 -15 6 -9 21 -17 33 -18 12 0 20 -4 18 -7 -6 -9 135
-123 151 -123 8 0 14 -4 14 -9 0 -5 4 -6 10 -3 5 3 7 0 4 -8 -6 -18 21 -41 38
-31 7 4 10 3 5 -1 -9 -11 23 -46 35 -39 4 3 7 1 6 -4 -3 -10 204 -222 216
-222 5 0 6 7 3 15 -4 8 -1 17 6 21 7 4 9 3 4 -1 -4 -5 0 -16 9 -26 12 -13 12
-19 3 -25 -8 -4 -10 -3 -5 4 4 7 2 12 -3 12 -19 0 -12 -26 12 -49 15 -13 30
-19 40 -15 10 3 17 1 17 -6 0 -6 -4 -8 -10 -5 -21 13 -9 -17 21 -55 20 -25 37
-37 48 -33 11 3 12 2 4 -4 -9 -7 -3 -22 23 -58 19 -28 40 -50 47 -50 7 0 11
-7 9 -16 -1 -8 8 -26 20 -39 13 -14 23 -29 23 -34 0 -5 6 -11 14 -14 9 -3 11
0 6 8 -5 9 -4 11 4 6 6 -4 9 -11 6 -16 -3 -5 -1 -11 5 -15 6 -4 8 -11 4 -16
-6 -10 32 -79 50 -91 5 -3 10 -12 12 -20 1 -7 11 -29 22 -48 11 -19 40 -74 63
-122 23 -48 46 -85 50 -83 4 3 11 0 15 -6 4 -8 3 -9 -4 -5 -19 11 -14 -15 13
-69 14 -27 25 -56 25 -62 0 -7 8 -13 18 -14 9 0 12 -3 6 -5 -8 -3 3 -49 32
-136 24 -71 44 -136 44 -144 0 -17 17 -18 23 -1 3 6 4 2 4 -10 -1 -12 -5 -19
-9 -17 -11 7 -10 -10 4 -43 6 -15 10 -36 9 -45 -1 -10 3 -18 9 -18 6 0 8 -5 5
-10 -4 -6 -4 -19 0 -28 4 -9 9 -28 11 -42 2 -14 6 -34 8 -45 3 -11 5 -30 5
-43 1 -13 5 -20 11 -17 5 3 7 0 4 -8 -3 -8 0 -48 6 -88 6 -41 13 -119 16 -174
4 -58 11 -103 18 -107 6 -4 7 -8 1 -8 -13 0 -7 -227 6 -252 7 -14 6 -16 -6
-12 -13 5 -15 -6 -16 -72 -1 -44 -2 -92 -4 -109 -3 -30 -34 -239 -42 -285 -3
-14 -5 -40 -5 -58 0 -18 -3 -30 -6 -27 -7 7 -42 -137 -36 -147 3 -5 0 -8 -5
-8 -6 0 -11 -6 -11 -13 0 -7 -16 -60 -34 -117 -19 -57 -33 -107 -30 -111 2 -4
-2 -10 -8 -12 -10 -4 -10 -7 0 -15 11 -7 10 -10 -3 -16 -10 -4 -15 -12 -11
-22 3 -8 2 -13 -3 -10 -11 7 -33 -43 -25 -56 5 -7 2 -8 -6 -3 -10 6 -12 4 -7
-8 4 -10 2 -17 -4 -17 -6 0 -8 -7 -5 -16 3 -8 2 -13 -3 -10 -10 6 -21 -16 -21
-40 0 -9 5 -12 12 -8 7 4 8 3 4 -5 -4 -6 -11 -9 -15 -7 -7 5 -121 -194 -121
-209 0 -4 6 -3 13 1 6 4 9 4 5 0 -3 -4 -9 -6 -12 -4 -11 6 -93 -137 -88 -154
1 -5 -4 -8 -11 -8 -13 0 -41 -39 -34 -47 3 -2 -10 -19 -28 -37 -18 -18 -36
-42 -39 -54 -4 -11 -13 -23 -21 -26 -9 -3 -12 -12 -8 -22 4 -11 3 -15 -5 -10
-12 7 -59 -50 -54 -66 1 -5 -2 -7 -7 -4 -5 3 -17 -7 -27 -22 -9 -15 -26 -34
-35 -43 -10 -9 -16 -19 -12 -23 3 -3 1 -6 -6 -6 -7 0 -9 -5 -5 -12 4 -6 3 -8
-3 -5 -11 7 -96 -76 -88 -86 3 -4 2 -5 -2 -2 -10 8 -83 -67 -76 -78 3 -6 1 -7
-4 -4 -6 4 -31 -16 -57 -44 -25 -27 -46 -47 -46 -44 0 3 -12 -6 -27 -22 -16
-15 -28 -30 -28 -34 0 -4 -4 -11 -9 -16 -5 -5 -6 -3 -2 5 10 17 -4 15 -23 -3
-9 -9 -33 -28 -53 -44 -21 -16 -34 -32 -30 -35 4 -4 2 -6 -4 -4 -12 3 -84 -43
-84 -54 0 -5 -5 -8 -11 -8 -14 0 -80 -46 -74 -52 3 -2 -1 -5 -7 -5 -17 0 -133
-71 -133 -80 -1 -5 -6 -17 -12 -29 -9 -16 -9 -24 0 -34 10 -12 9 -12 -6 -1
-16 13 -16 16 -2 37 9 13 13 24 10 24 -10 0 -65 -30 -65 -36 0 -2 10 1 23 7
18 9 20 9 10 -1 -7 -7 -21 -14 -32 -15 -35 -2 -119 -47 -130 -69 -8 -14 -10
-15 -6 -3 5 17 4 17 -28 0 -17 -10 -36 -24 -40 -31 -5 -7 -12 -10 -17 -7 -11
7 -123 -34 -132 -49 -4 -6 -15 -11 -25 -12 -47 -2 -54 -5 -47 -16 4 -6 3 -8
-3 -5 -11 7 -145 -33 -154 -46 -3 -5 -9 -8 -13 -7 -14 4 -86 -12 -86 -19 0 -4
-17 -8 -37 -8 -21 -1 -39 -6 -41 -12 -2 -6 -7 -9 -12 -6 -8 5 -100 -11 -130
-22 -8 -3 -29 -7 -46 -8 -33 -2 -81 -11 -124 -21 -51 -13 -579 -16 -697 -5
-1316 127 -2394 1057 -2709 2336 -67 272 -79 382 -78 735 0 275 3 333 22 455
152 972 714 1775 1576 2254 339 188 755 316 1166 360 104 11 634 11 673 0z
m507 -43 c0 -2 -8 -10 -17 -17 -16 -13 -17 -12 -4 4 13 16 21 21 21 13z m103
-53 c-3 -7 -6 -13 -8 -13 -2 0 -5 6 -8 13 -3 8 1 14 8 14 7 0 11 -6 8 -14z
m185 -37 c-7 -7 -19 -11 -27 -8 -11 4 -10 7 5 13 29 12 36 10 22 -5z m-38 -16
c8 -5 12 -11 10 -14 -3 -2 -14 2 -24 10 -22 15 -10 19 14 4z m330 -54 c0 -8
-4 -17 -8 -20 -4 -2 -8 4 -8 15 0 10 4 19 8 19 4 0 8 -6 8 -14z m31 -3 c13
-16 12 -17 -3 -4 -17 13 -22 21 -14 21 2 0 10 -8 17 -17z m19 -143 c0 -5 -2
-10 -4 -10 -3 0 -8 5 -11 10 -3 6 -1 10 4 10 6 0 11 -4 11 -10z m250 -4 c0 -2
-7 -7 -16 -10 -8 -3 -12 -2 -9 4 6 10 25 14 25 6z m90 -21 c13 -18 13 -19 0
-8 -8 6 -19 11 -23 11 -5 0 -12 4 -15 8 -4 4 -1 4 6 0 7 -4 12 -2 12 5 0 7 1
10 3 8 1 -2 9 -13 17 -24z m-13 -21 c-3 -3 -12 -4 -19 -1 -8 3 -5 6 6 6 11 1
17 -2 13 -5z m70 -69 c0 -8 -4 -12 -9 -9 -5 3 -6 10 -3 15 9 13 12 11 12 -6z
m172 -61 c-6 -7 -8 -18 -4 -24 3 -5 1 -10 -4 -10 -6 0 -10 11 -9 23 1 13 8 24
15 24 9 0 10 -4 2 -13z m-189 -48 c0 -2 -7 -7 -16 -10 -8 -3 -12 -2 -9 4 6 10
25 14 25 6z m277 -21 c4 -4 3 -5 -4 -2 -6 4 -13 2 -15 -5 -3 -8 -6 -6 -10 4
-7 17 15 19 29 3z m30 -30 c0 -8 -4 -12 -9 -9 -5 3 -6 10 -3 15 9 13 12 11 12
-6z m-170 -30 c0 -8 -4 -12 -9 -9 -5 3 -6 10 -3 15 9 13 12 11 12 -6z m297
-23 c3 -5 -1 -9 -9 -9 -8 0 -12 4 -9 9 3 4 7 8 9 8 2 0 6 -4 9 -8z m98 -89
c-6 -2 -9 -10 -6 -15 4 -7 2 -8 -5 -4 -13 9 -5 26 12 25 9 0 8 -2 -1 -6z m72
-61 c3 -5 -1 -9 -9 -9 -8 0 -12 4 -9 9 3 4 7 8 9 8 2 0 6 -4 9 -8z m-227 -77
c0 -8 -4 -12 -9 -9 -5 3 -6 10 -3 15 9 13 12 11 12 -6z m380 -82 c-4 -3 1 -12
11 -20 13 -10 14 -13 2 -11 -26 5 -42 38 -18 38 6 0 8 -3 5 -7z m117 -121 c3
-5 -1 -9 -9 -9 -8 0 -12 4 -9 9 3 4 7 8 9 8 2 0 6 -4 9 -8z m33 -65 c0 -8 -6
-14 -14 -14 -9 0 -10 4 -2 14 6 7 12 13 14 13 1 0 2 -6 2 -13z m42 -41 c8 -10
9 -16 1 -21 -6 -4 -9 -1 -8 7 2 7 -3 12 -10 10 -8 -1 -11 2 -7 8 8 13 10 13
24 -4z m39 -121 c-3 -3 -9 2 -12 12 -6 14 -5 15 5 6 7 -7 10 -15 7 -18z m47 3
c5 4 5 1 1 -6 -6 -10 -11 -10 -22 -1 -8 6 -14 14 -14 16 0 3 6 0 13 -6 8 -6
18 -7 22 -3z m28 -62 c4 -10 1 -13 -8 -9 -8 3 -12 9 -9 14 7 12 11 11 17 -5z
m-193 -162 c0 -8 -19 -13 -24 -6 -3 5 1 9 9 9 8 0 15 -2 15 -3z m280 -4 c0 -5
-4 -10 -10 -10 -5 0 -10 5 -10 10 0 6 5 10 10 10 6 0 10 -4 10 -10z m24 -28
c3 -5 -1 -9 -9 -9 -8 0 -12 4 -9 9 3 4 7 8 9 8 2 0 6 -4 9 -8z m53 -142 c-2
-11 -6 -22 -9 -26 -4 -3 -5 2 -3 13 2 10 4 21 4 26 1 4 3 7 6 7 3 0 4 -9 2
-20z m101 -185 c-3 -3 -9 2 -12 12 -6 14 -5 15 5 6 7 -7 10 -15 7 -18z m43
-98 c-10 -9 -11 -8 -5 6 3 10 9 15 12 12 3 -3 0 -11 -7 -18z m44 -105 c-3 -3
-11 0 -18 7 -9 10 -8 11 6 5 10 -3 15 -9 12 -12z m129 -540 c3 -5 -1 -9 -9 -9
-8 0 -12 4 -9 9 3 4 7 8 9 8 2 0 6 -4 9 -8z m15 -166 c-3 -3 -11 5 -18 17 -13
21 -12 21 5 5 10 -10 16 -20 13 -22z m1 -350 c0 -2 -7 -7 -16 -10 -8 -3 -12
-2 -9 4 6 10 25 14 25 6z m-18 -142 c-9 -16 -10 -14 -9 8 1 15 6 23 11 18 4
-4 4 -16 -2 -26z m-50 -446 c-2 -10 -6 -18 -7 -18 -1 0 -5 8 -7 18 -3 11 0 19
7 19 7 0 10 -8 7 -19z m-25 -43 c-8 -9 -14 -10 -19 -2 -9 16 0 27 17 21 11 -5
12 -9 2 -19z m-57 -229 c0 -2 -7 -7 -16 -10 -8 -3 -12 -2 -9 4 6 10 25 14 25
6z m-29 -43 c13 -16 12 -17 -3 -4 -17 13 -22 21 -14 21 2 0 10 -8 17 -17z
m-54 -205 c-3 -8 -6 -5 -6 6 -1 11 2 17 5 13 3 -3 4 -12 1 -19z m-536 -425
c12 -16 12 -17 -2 -6 -9 7 -20 9 -24 5 -5 -4 -5 -1 -1 6 9 16 11 15 27 -5z
m229 -123 c-6 -11 -13 -20 -16 -20 -2 0 0 9 6 20 6 11 13 20 16 20 2 0 0 -9
-6 -20z m-80 -70 c-7 -5 -9 -13 -5 -20 5 -8 4 -11 -3 -6 -16 10 -11 45 6 39
10 -5 11 -8 2 -13z m-36 -38 c3 -5 -1 -9 -9 -9 -8 0 -12 4 -9 9 3 4 7 8 9 8 2
0 6 -4 9 -8z m-44 -66 c0 -3 -4 -8 -10 -11 -5 -3 -10 -1 -10 4 0 6 5 11 10 11
6 0 10 -2 10 -4z m20 -10 c0 -2 -8 -10 -17 -17 -16 -13 -17 -12 -4 4 13 16 21
21 21 13z m-198 -228 c-9 -9 -15 -9 -24 1 -11 10 -9 11 6 5 16 -6 18 -4 12 12
-6 15 -5 17 5 7 10 -10 10 -16 1 -25z m-183 -145 c-6 -7 -17 -13 -23 -12 -7 0
-6 2 2 6 6 2 10 8 8 12 -3 4 1 8 9 8 11 0 12 -4 4 -14z m-275 -21 c3 -5 -1 -9
-9 -9 -8 0 -12 4 -9 9 3 4 7 8 9 8 2 0 6 -4 9 -8z m-83 -75 c-10 -9 -11 -8 -5
6 3 10 9 15 12 12 3 -3 0 -11 -7 -18z m247 -2 c-3 -3 -9 2 -12 12 -6 14 -5 15
5 6 7 -7 10 -15 7 -18z m-24 -23 c3 -5 -1 -9 -9 -9 -8 0 -12 4 -9 9 3 4 7 8 9
8 2 0 6 -4 9 -8z m-63 -31 c-6 -10 -8 -20 -6 -23 3 -3 -1 -5 -9 -5 -12 0 -12
4 1 24 18 28 28 31 14 4z m-196 -89 c-3 -3 -11 0 -18 7 -9 10 -8 11 6 5 10 -3
15 -9 12 -12z m-361 -108 c3 -8 2 -12 -4 -9 -6 3 -10 10 -10 16 0 14 7 11 14
-7z m-224 -168 c0 -2 -8 -10 -17 -17 -16 -13 -17 -12 -4 4 13 16 21 21 21 13z
m-230 -100 c0 -2 -8 -10 -17 -17 -16 -13 -17 -12 -4 4 13 16 21 21 21 13z m94
-4 c3 -5 -1 -9 -9 -9 -8 0 -12 4 -9 9 3 4 7 8 9 8 2 0 6 -4 9 -8z m-189 -22
c-3 -5 -12 -10 -18 -10 -7 0 -6 4 3 10 19 12 23 12 15 0z m126 -8 c-7 -2 -18
1 -23 6 -8 8 -4 9 13 5 13 -4 18 -8 10 -11z m-106 -22 c3 -6 -1 -7 -9 -4 -18
7 -21 14 -7 14 6 0 13 -4 16 -10z m-140 -28 c-3 -3 -11 0 -18 7 -9 10 -8 11 6
5 10 -3 15 -9 12 -12z m-134 -19 c12 -16 12 -17 -2 -6 -9 7 -20 9 -24 5 -5 -4
-5 -1 -1 6 9 16 11 15 27 -5z m-137 -11 c3 -5 -1 -9 -9 -9 -8 0 -12 4 -9 9 3
4 7 8 9 8 2 0 6 -4 9 -8z m2684 -4412 c81 -49 83 -204 3 -258 -14 -10 -78 -40
-141 -67 -274 -115 -587 -276 -885 -453 -135 -81 -166 -95 -203 -95 -54 0 -90
25 -119 83 -39 76 -23 139 49 193 194 145 1138 616 1238 617 14 0 40 -9 58
-20z m-6976 -570 c534 -307 577 -333 656 -394 80 -63 102 -96 102 -153 0 -81
-68 -143 -157 -143 -47 0 -58 5 -106 44 -88 71 -163 119 -337 214 -307 167
-665 380 -685 407 -29 39 -27 120 4 163 13 19 38 43 55 54 61 38 85 28 468
-192z"/>
<path d="M23878 10493 c7 -3 16 -2 19 1 4 3 -2 6 -13 5 -11 0 -14 -3 -6 -6z"/>
<path d="M23950 10480 c19 -13 30 -13 30 0 0 6 -10 10 -22 10 -19 0 -20 -2 -8
-10z"/>
<path d="M23990 10469 c0 -6 7 -9 15 -5 8 3 15 2 15 -2 0 -5 26 -16 58 -26 31
-10 70 -25 86 -33 22 -11 26 -12 20 -1 -4 7 1 6 12 -3 28 -25 101 -59 108 -52
3 4 6 1 6 -5 0 -14 57 -45 70 -37 5 3 12 0 16 -6 5 -8 3 -9 -7 -4 -29 17 8
-13 76 -60 39 -27 79 -57 89 -67 10 -9 24 -15 29 -11 6 3 7 1 4 -4 -9 -14 29
-47 44 -37 7 4 10 3 6 -3 -8 -13 17 -36 28 -25 5 4 5 2 2 -4 -8 -14 17 -37 28
-26 5 4 5 2 2 -4 -3 -6 14 -33 38 -60 25 -27 45 -53 45 -58 0 -4 7 -6 15 -2 8
3 14 2 14 -2 -1 -4 0 -10 1 -14 1 -5 3 -11 4 -15 5 -22 105 -161 111 -155 5 4
5 2 2 -5 -4 -6 0 -18 8 -27 9 -8 16 -18 15 -21 -1 -21 1 -25 12 -19 7 4 8 3 4
-4 -8 -14 28 -84 39 -74 5 4 5 1 1 -6 -10 -17 3 -54 16 -46 7 4 8 2 4 -5 -8
-12 14 -81 26 -81 4 0 5 -6 2 -14 -3 -8 -1 -17 5 -20 6 -4 7 -14 4 -23 -4 -9
-2 -14 3 -11 5 4 10 -4 10 -15 1 -12 6 -44 13 -72 17 -72 19 -91 27 -183 6
-68 10 -82 22 -77 11 4 12 2 4 -7 -5 -7 -10 -42 -10 -78 0 -36 -2 -85 -6 -110
-25 -201 -31 -238 -42 -272 -5 -16 -3 -19 7 -13 10 6 9 2 -2 -11 -20 -25 -42
-101 -33 -116 4 -6 3 -8 -3 -5 -11 7 -37 -58 -29 -72 3 -5 -1 -12 -10 -15 -9
-3 -14 -13 -10 -21 3 -8 1 -17 -5 -20 -5 -4 -16 -20 -25 -37 -9 -16 -11 -27
-6 -24 6 4 14 1 18 -5 4 -7 3 -9 -4 -5 -13 8 -44 -22 -37 -35 4 -5 1 -9 -5 -9
-7 0 -10 -7 -7 -15 4 -8 1 -17 -5 -21 -7 -5 -8 -2 -3 7 24 43 -19 -17 -64 -90
-61 -96 -67 -104 -176 -219 -44 -47 -79 -89 -78 -93 2 -5 -3 -6 -11 -3 -8 3
-27 -11 -46 -33 -18 -21 -30 -33 -26 -26 3 6 -31 -14 -78 -45 -46 -31 -81 -61
-78 -66 3 -5 0 -6 -5 -3 -9 6 -119 -46 -133 -62 -3 -3 -32 -16 -65 -27 -34
-12 -59 -27 -57 -33 1 -7 -2 -10 -8 -6 -6 4 -18 1 -27 -7 -14 -11 -15 -11 -9
0 6 10 1 10 -22 -2 -16 -8 -33 -12 -37 -8 -5 4 -5 2 -2 -4 8 -13 120 2 125 17
2 5 8 7 12 4 5 -3 21 -3 35 1 18 4 24 11 20 22 -4 11 -2 12 8 4 21 -18 183 46
324 128 39 23 51 34 47 48 -4 12 -3 13 3 4 8 -10 21 -5 59 23 27 19 60 43 74
52 45 31 122 112 115 123 -3 5 0 7 8 4 16 -6 60 43 51 57 -3 5 1 6 9 3 17 -6
49 34 40 50 -3 6 -3 8 2 4 12 -11 35 11 35 33 0 11 6 18 13 17 8 -2 12 9 11
34 0 20 3 35 7 32 4 -2 6 -14 4 -25 -4 -17 -2 -19 11 -8 8 6 12 14 10 16 -2 3
4 13 15 24 11 11 17 24 14 29 -4 6 -2 10 4 10 10 0 54 71 49 81 -2 3 5 13 15
23 18 18 24 52 7 41 -16 -10 -11 1 7 16 11 10 14 10 9 2 -4 -7 -5 -13 -1 -13
5 0 23 39 30 65 1 6 9 27 19 47 9 21 17 45 19 55 1 10 6 24 10 31 5 6 6 16 2
21 -3 5 0 13 6 16 5 4 8 13 5 21 -3 8 0 14 6 14 6 0 8 3 5 6 -3 4 -2 15 4 25
5 11 12 36 14 56 3 21 10 63 15 93 19 106 14 429 -7 463 -3 5 -7 17 -8 26 -6
58 -19 110 -26 105 -5 -3 -6 2 -3 10 10 26 -6 39 -23 19 -12 -14 -12 -12 1 9
9 15 12 29 7 33 -6 3 -9 13 -9 23 2 25 -22 92 -33 92 -5 0 -9 -5 -9 -12 0 -6
-3 -8 -6 -5 -4 4 -2 13 5 20 9 11 3 31 -24 91 -19 42 -37 76 -40 76 -4 0 -3
-5 1 -12 4 -7 3 -8 -5 -4 -6 4 -9 11 -6 16 7 12 -6 41 -16 34 -5 -3 -6 2 -3
10 3 9 1 16 -5 16 -6 0 -11 5 -11 11 0 44 -289 375 -318 364 -7 -2 -10 -1 -7
5 11 17 -225 182 -275 192 -8 2 -21 9 -28 16 -12 11 -18 10 -36 -5 -11 -10
-15 -11 -8 -3 6 8 12 17 12 21 0 11 -61 30 -73 22 -5 -3 -7 -1 -4 4 8 13 -129
65 -173 67 -17 1 -30 5 -30 10 0 4 -7 6 -15 3 -8 -4 -17 -2 -21 4 -4 6 -12 5
-22 -3 -9 -7 -13 -8 -9 -2 4 7 -2 14 -16 18 -33 9 -47 7 -47 -5z m528 -235
c-1 -5 -9 -9 -16 -10 -10 -2 -11 1 -1 12 12 14 24 13 17 -2z m59 -29 c0 -8 -4
-12 -9 -9 -5 3 -6 10 -3 15 9 13 12 11 12 -6z m380 -310 c0 -8 -4 -12 -9 -9
-5 3 -6 10 -3 15 9 13 12 11 12 -6z m51 -250 c-3 -3 -9 2 -12 12 -6 14 -5 15
5 6 7 -7 10 -15 7 -18z m26 -21 c3 -8 2 -12 -4 -9 -6 3 -10 10 -10 16 0 14 7
11 14 -7z m71 -263 c3 -5 2 -12 -3 -15 -5 -3 -9 1 -9 9 0 17 3 19 12 6z m129
-757 c3 -8 2 -12 -4 -9 -6 3 -10 10 -10 16 0 14 7 11 14 -7z m-217 -370 c-3
-4 -2 -14 3 -24 6 -12 5 -17 -4 -17 -7 0 -11 10 -10 21 3 27 3 26 11 26 3 0 3
-3 0 -6z m-137 -190 c0 -8 -19 -13 -24 -6 -3 5 1 9 9 9 8 0 15 -2 15 -3z m5
-44 c3 -6 -1 -7 -9 -4 -18 7 -21 14 -7 14 6 0 13 -4 16 -10z m-14 -27 c13 -16
12 -17 -3 -4 -17 13 -22 21 -14 21 2 0 10 -8 17 -17z m-54 -45 c-3 -8 -6 -5
-6 6 -1 11 2 17 5 13 3 -3 4 -12 1 -19z m43 10 c0 -4 -4 -8 -9 -8 -6 0 -12 4
-15 8 -3 5 1 9 9 9 8 0 15 -4 15 -9z m-73 -40 c-3 -8 -6 -5 -6 6 -1 11 2 17 5
13 3 -3 4 -12 1 -19z m-257 -254 c0 -2 -9 -8 -20 -14 -15 -8 -18 -8 -14 3 4
11 34 21 34 11z m-56 -32 c3 -5 -1 -9 -9 -9 -8 0 -12 4 -9 9 3 4 7 8 9 8 2 0
6 -4 9 -8z m-24 -27 c0 -2 -10 -9 -22 -15 -22 -11 -22 -10 -4 4 21 17 26 19
26 11z m-93 -37 c-3 -8 -6 -5 -6 6 -1 11 2 17 5 13 3 -3 4 -12 1 -19z"/>
<path d="M23954 7418 c-3 -4 2 -8 10 -8 8 0 17 4 20 8 3 5 -2 9 -10 9 -8 0
-17 -4 -20 -9z"/>
</g>
</svg>
